<mxfile host="app.diagrams.net" agent="Mozilla/5.0 (Windows NT 10.0; Win64; x64) AppleWebKit/537.36 (KHTML, like Gecko) Chrome/135.0.0.0 Safari/537.36 Edg/135.0.0.0" version="26.2.7">
  <diagram name="Page-1" id="sYREhatgt2nGhovGkDMJ">
    <mxGraphModel dx="3323" dy="2429" grid="0" gridSize="10" guides="1" tooltips="1" connect="1" arrows="1" fold="1" page="0" pageScale="1" pageWidth="827" pageHeight="1169" math="0" shadow="0">
      <root>
        <mxCell id="0" />
        <mxCell id="1" parent="0" />
        <mxCell id="fiUAc112BZFh3NTJw_ni-1" value="" style="fillColor=#AE4132;strokeColor=none;opacity=30;" vertex="1" parent="1">
          <mxGeometry x="720" y="20" width="210" height="99.99999999999994" as="geometry" />
        </mxCell>
        <mxCell id="fiUAc112BZFh3NTJw_ni-2" value="" style="fillColor=#10739E;strokeColor=none;opacity=30;" vertex="1" parent="1">
          <mxGeometry x="70" y="169.99999999999997" width="1470" height="99.99999999999994" as="geometry" />
        </mxCell>
        <mxCell id="fiUAc112BZFh3NTJw_ni-3" value="" style="fillColor=#F2931E;strokeColor=none;opacity=30;" vertex="1" parent="1">
          <mxGeometry x="1530" y="550" width="150" height="270" as="geometry" />
        </mxCell>
        <mxCell id="fiUAc112BZFh3NTJw_ni-4" value="" style="fillColor=#F2931E;strokeColor=none;opacity=30;" vertex="1" parent="1">
          <mxGeometry x="940" y="290" width="150" height="90" as="geometry" />
        </mxCell>
        <mxCell id="fiUAc112BZFh3NTJw_ni-5" value="" style="fillColor=#F2931E;strokeColor=none;opacity=30;" vertex="1" parent="1">
          <mxGeometry x="730" y="550" width="150" height="270" as="geometry" />
        </mxCell>
        <mxCell id="fiUAc112BZFh3NTJw_ni-6" value="" style="fillColor=#F2931E;strokeColor=none;opacity=30;" vertex="1" parent="1">
          <mxGeometry x="200.00000000000009" y="290.0000000000002" width="149.99999999999991" height="439.9999999999998" as="geometry" />
        </mxCell>
        <mxCell id="fiUAc112BZFh3NTJw_ni-7" value="" style="fillColor=#F2931E;strokeColor=none;opacity=30;" vertex="1" parent="1">
          <mxGeometry x="350" y="380" width="1330" height="170" as="geometry" />
        </mxCell>
        <mxCell id="fiUAc112BZFh3NTJw_ni-8" value="" style="fillColor=#10739E;strokeColor=none;opacity=30;" vertex="1" parent="1">
          <mxGeometry x="1530" y="830.0000000000002" width="150" height="80" as="geometry" />
        </mxCell>
        <mxCell id="fiUAc112BZFh3NTJw_ni-9" value="" style="fillColor=#10739E;strokeColor=none;opacity=30;" vertex="1" parent="1">
          <mxGeometry x="1180" y="560" width="330" height="80" as="geometry" />
        </mxCell>
        <mxCell id="fiUAc112BZFh3NTJw_ni-10" value="" style="fillColor=#10739E;strokeColor=none;opacity=30;" vertex="1" parent="1">
          <mxGeometry x="729.9999999999999" y="830.0000000000001" width="150" height="80" as="geometry" />
        </mxCell>
        <mxCell id="fiUAc112BZFh3NTJw_ni-11" value="" style="fillColor=#10739E;strokeColor=none;opacity=30;" vertex="1" parent="1">
          <mxGeometry x="380.00000000000006" y="560.0000000000001" width="329.99999999999994" height="80" as="geometry" />
        </mxCell>
        <mxCell id="fiUAc112BZFh3NTJw_ni-12" value="" style="fillColor=#10739E;strokeColor=none;opacity=30;" vertex="1" parent="1">
          <mxGeometry x="199.99999999999997" y="740" width="150" height="80" as="geometry" />
        </mxCell>
        <mxCell id="fiUAc112BZFh3NTJw_ni-13" value="" style="fillColor=#D9EAD3;strokeColor=none" vertex="1" parent="1">
          <mxGeometry x="20" y="380.0000000000001" width="150" height="80" as="geometry" />
        </mxCell>
        <mxCell id="fiUAc112BZFh3NTJw_ni-14" value="" style="fillColor=#12AAB5;strokeColor=none;opacity=30;" vertex="1" parent="1">
          <mxGeometry x="1180" y="290.0000000000001" width="500" height="80" as="geometry" />
        </mxCell>
        <mxCell id="fiUAc112BZFh3NTJw_ni-15" value="" style="fillColor=#12AAB5;strokeColor=none;opacity=30;" vertex="1" parent="1">
          <mxGeometry x="380" y="290" width="500" height="80" as="geometry" />
        </mxCell>
        <mxCell id="fiUAc112BZFh3NTJw_ni-16" value="" style="fillColor=#12AAB5;strokeColor=none;opacity=30;" vertex="1" parent="1">
          <mxGeometry x="20.000000000000014" y="290" width="150" height="80" as="geometry" />
        </mxCell>
        <mxCell id="fiUAc112BZFh3NTJw_ni-17" value="Head of Development" style="rounded=1;fillColor=#23445D;gradientColor=none;strokeColor=none;fontColor=#FFFFFF;fontStyle=1;fontFamily=Tahoma;fontSize=14" vertex="1" parent="1">
          <mxGeometry x="730" y="29.99999999999997" width="190" height="80" as="geometry" />
        </mxCell>
        <mxCell id="fiUAc112BZFh3NTJw_ni-18" value="Training Department" style="rounded=1;fillColor=#23445D;gradientColor=none;strokeColor=none;fontColor=#FFFFFF;fontStyle=1;fontFamily=Tahoma;fontSize=14" vertex="1" parent="1">
          <mxGeometry x="1334.9999999999998" y="179.99999999999997" width="190" height="80" as="geometry" />
        </mxCell>
        <mxCell id="fiUAc112BZFh3NTJw_ni-19" value="" style="edgeStyle=elbowEdgeStyle;elbow=vertical;strokeWidth=2;rounded=0;fontSize=12;startSize=8;endSize=8;curved=1;" edge="1" parent="1" source="fiUAc112BZFh3NTJw_ni-17" target="fiUAc112BZFh3NTJw_ni-18">
          <mxGeometry x="337" y="215.5" width="100" height="100" as="geometry">
            <mxPoint x="310" y="159.99999999999997" as="sourcePoint" />
            <mxPoint x="410" y="59.99999999999997" as="targetPoint" />
          </mxGeometry>
        </mxCell>
        <mxCell id="fiUAc112BZFh3NTJw_ni-20" value="Technical Support" style="rounded=1;fillColor=#23445D;gradientColor=none;strokeColor=none;fontColor=#FFFFFF;fontStyle=1;fontFamily=Tahoma;fontSize=14" vertex="1" parent="1">
          <mxGeometry x="920" y="179.99999999999997" width="190" height="80" as="geometry" />
        </mxCell>
        <mxCell id="fiUAc112BZFh3NTJw_ni-21" value="Research and &#xa;Development" style="rounded=1;fillColor=#23445D;gradientColor=none;strokeColor=none;fontColor=#FFFFFF;fontStyle=1;fontFamily=Tahoma;fontSize=14" vertex="1" parent="1">
          <mxGeometry x="534.9999999999999" y="179.99999999999997" width="190" height="80" as="geometry" />
        </mxCell>
        <mxCell id="fiUAc112BZFh3NTJw_ni-22" value="Human Resources" style="rounded=1;fillColor=#23445D;gradientColor=none;strokeColor=none;fontColor=#FFFFFF;fontStyle=1;fontFamily=Tahoma;fontSize=14" vertex="1" parent="1">
          <mxGeometry x="80" y="179.99999999999997" width="190" height="80" as="geometry" />
        </mxCell>
        <mxCell id="fiUAc112BZFh3NTJw_ni-23" value="Regular Report" style="rounded=1;fillColor=#23445D;gradientColor=none;strokeColor=none;fontColor=#FFFFFF;fontStyle=1;fontFamily=Tahoma;fontSize=14" vertex="1" parent="1">
          <mxGeometry x="30" y="300" width="130" height="60" as="geometry" />
        </mxCell>
        <mxCell id="fiUAc112BZFh3NTJw_ni-24" value="Data Collection" style="rounded=1;fillColor=#23445D;gradientColor=none;strokeColor=none;fontColor=#FFFFFF;fontStyle=1;fontFamily=Tahoma;fontSize=14" vertex="1" parent="1">
          <mxGeometry x="30" y="390" width="130" height="60" as="geometry" />
        </mxCell>
        <mxCell id="fiUAc112BZFh3NTJw_ni-25" value="Programming" style="rounded=1;fillColor=#23445D;gradientColor=none;strokeColor=none;fontColor=#FFFFFF;fontStyle=1;fontFamily=Tahoma;fontSize=14" vertex="1" parent="1">
          <mxGeometry x="210" y="300" width="130" height="60" as="geometry" />
        </mxCell>
        <mxCell id="fiUAc112BZFh3NTJw_ni-26" value="HTTP" style="rounded=1;fillColor=#23445D;gradientColor=none;strokeColor=none;fontColor=#FFFFFF;fontStyle=1;fontFamily=Tahoma;fontSize=14" vertex="1" parent="1">
          <mxGeometry x="210" y="390" width="130" height="60" as="geometry" />
        </mxCell>
        <mxCell id="fiUAc112BZFh3NTJw_ni-27" value="HTS" style="rounded=1;fillColor=#23445D;gradientColor=none;strokeColor=none;fontColor=#FFFFFF;fontStyle=1;fontFamily=Tahoma;fontSize=14" vertex="1" parent="1">
          <mxGeometry x="210" y="480" width="130" height="60" as="geometry" />
        </mxCell>
        <mxCell id="fiUAc112BZFh3NTJw_ni-28" value="CVS" style="rounded=1;fillColor=#23445D;gradientColor=none;strokeColor=none;fontColor=#FFFFFF;fontStyle=1;fontFamily=Tahoma;fontSize=14" vertex="1" parent="1">
          <mxGeometry x="210" y="570" width="130" height="60" as="geometry" />
        </mxCell>
        <mxCell id="fiUAc112BZFh3NTJw_ni-29" value="Client / Server" style="rounded=1;fillColor=#23445D;gradientColor=none;strokeColor=none;fontColor=#FFFFFF;fontStyle=1;fontFamily=Tahoma;fontSize=14" vertex="1" parent="1">
          <mxGeometry x="210" y="660" width="130" height="60" as="geometry" />
        </mxCell>
        <mxCell id="fiUAc112BZFh3NTJw_ni-30" value="Data Collection" style="rounded=1;fillColor=#23445D;gradientColor=none;strokeColor=none;fontColor=#FFFFFF;fontStyle=1;fontFamily=Tahoma;fontSize=14" vertex="1" parent="1">
          <mxGeometry x="210" y="749.9999999999999" width="130" height="60" as="geometry" />
        </mxCell>
        <mxCell id="fiUAc112BZFh3NTJw_ni-31" value="SI" style="rounded=1;fillColor=#23445D;gradientColor=none;strokeColor=none;fontColor=#FFFFFF;fontStyle=1;fontFamily=Tahoma;fontSize=14" vertex="1" parent="1">
          <mxGeometry x="390" y="300" width="130" height="60" as="geometry" />
        </mxCell>
        <mxCell id="fiUAc112BZFh3NTJw_ni-32" value="Programming" style="rounded=1;fillColor=#23445D;gradientColor=none;strokeColor=none;fontColor=#FFFFFF;fontStyle=1;fontFamily=Tahoma;fontSize=14" vertex="1" parent="1">
          <mxGeometry x="390" y="390" width="130" height="60" as="geometry" />
        </mxCell>
        <mxCell id="fiUAc112BZFh3NTJw_ni-33" value="Client / Server" style="rounded=1;fillColor=#23445D;gradientColor=none;strokeColor=none;fontColor=#FFFFFF;fontStyle=1;fontFamily=Tahoma;fontSize=14" vertex="1" parent="1">
          <mxGeometry x="390" y="480" width="130" height="60" as="geometry" />
        </mxCell>
        <mxCell id="fiUAc112BZFh3NTJw_ni-34" value="Data Collection" style="rounded=1;fillColor=#23445D;gradientColor=none;strokeColor=none;fontColor=#FFFFFF;fontStyle=1;fontFamily=Tahoma;fontSize=14" vertex="1" parent="1">
          <mxGeometry x="390" y="570" width="130" height="60" as="geometry" />
        </mxCell>
        <mxCell id="fiUAc112BZFh3NTJw_ni-35" value="SSI" style="rounded=1;fillColor=#23445D;gradientColor=none;strokeColor=none;fontColor=#FFFFFF;fontStyle=1;fontFamily=Tahoma;fontSize=14" vertex="1" parent="1">
          <mxGeometry x="565" y="300" width="130" height="60" as="geometry" />
        </mxCell>
        <mxCell id="fiUAc112BZFh3NTJw_ni-36" value="Programming" style="rounded=1;fillColor=#23445D;gradientColor=none;strokeColor=none;fontColor=#FFFFFF;fontStyle=1;fontFamily=Tahoma;fontSize=14" vertex="1" parent="1">
          <mxGeometry x="565" y="390" width="130" height="60" as="geometry" />
        </mxCell>
        <mxCell id="fiUAc112BZFh3NTJw_ni-37" value="Client / Server" style="rounded=1;fillColor=#23445D;gradientColor=none;strokeColor=none;fontColor=#FFFFFF;fontStyle=1;fontFamily=Tahoma;fontSize=14" vertex="1" parent="1">
          <mxGeometry x="565" y="480" width="130" height="60" as="geometry" />
        </mxCell>
        <mxCell id="fiUAc112BZFh3NTJw_ni-38" value="Data Collection" style="rounded=1;fillColor=#23445D;gradientColor=none;strokeColor=none;fontColor=#FFFFFF;fontStyle=1;fontFamily=Tahoma;fontSize=14" vertex="1" parent="1">
          <mxGeometry x="565" y="570" width="130" height="60" as="geometry" />
        </mxCell>
        <mxCell id="fiUAc112BZFh3NTJw_ni-39" value="XMI" style="rounded=1;fillColor=#23445D;gradientColor=none;strokeColor=none;fontColor=#FFFFFF;fontStyle=1;fontFamily=Tahoma;fontSize=14" vertex="1" parent="1">
          <mxGeometry x="740" y="300" width="130" height="60" as="geometry" />
        </mxCell>
        <mxCell id="fiUAc112BZFh3NTJw_ni-40" value="Programming" style="rounded=1;fillColor=#23445D;gradientColor=none;strokeColor=none;fontColor=#FFFFFF;fontStyle=1;fontFamily=Tahoma;fontSize=14" vertex="1" parent="1">
          <mxGeometry x="740" y="390" width="130" height="60" as="geometry" />
        </mxCell>
        <mxCell id="fiUAc112BZFh3NTJw_ni-41" value="HTTP" style="rounded=1;fillColor=#23445D;gradientColor=none;strokeColor=none;fontColor=#FFFFFF;fontStyle=1;fontFamily=Tahoma;fontSize=14" vertex="1" parent="1">
          <mxGeometry x="740" y="480" width="130" height="60" as="geometry" />
        </mxCell>
        <mxCell id="fiUAc112BZFh3NTJw_ni-42" value="HTS" style="rounded=1;fillColor=#23445D;gradientColor=none;strokeColor=none;fontColor=#FFFFFF;fontStyle=1;fontFamily=Tahoma;fontSize=14" vertex="1" parent="1">
          <mxGeometry x="740" y="570" width="130" height="60" as="geometry" />
        </mxCell>
        <mxCell id="fiUAc112BZFh3NTJw_ni-43" value="CVS" style="rounded=1;fillColor=#23445D;gradientColor=none;strokeColor=none;fontColor=#FFFFFF;fontStyle=1;fontFamily=Tahoma;fontSize=14" vertex="1" parent="1">
          <mxGeometry x="740" y="660" width="130" height="60" as="geometry" />
        </mxCell>
        <mxCell id="fiUAc112BZFh3NTJw_ni-44" value="Client / Server" style="rounded=1;fillColor=#23445D;gradientColor=none;strokeColor=none;fontColor=#FFFFFF;fontStyle=1;fontFamily=Tahoma;fontSize=14" vertex="1" parent="1">
          <mxGeometry x="740" y="750" width="130" height="60" as="geometry" />
        </mxCell>
        <mxCell id="fiUAc112BZFh3NTJw_ni-45" value="Data Collection" style="rounded=1;fillColor=#23445D;gradientColor=none;strokeColor=none;fontColor=#FFFFFF;fontStyle=1;fontFamily=Tahoma;fontSize=14" vertex="1" parent="1">
          <mxGeometry x="740" y="840" width="130" height="60" as="geometry" />
        </mxCell>
        <mxCell id="fiUAc112BZFh3NTJw_ni-46" value="FAQ" style="rounded=1;fillColor=#23445D;gradientColor=none;strokeColor=none;fontColor=#FFFFFF;fontStyle=1;fontFamily=Tahoma;fontSize=14" vertex="1" parent="1">
          <mxGeometry x="950" y="300" width="130" height="60" as="geometry" />
        </mxCell>
        <mxCell id="fiUAc112BZFh3NTJw_ni-47" value="Know Issues" style="rounded=1;fillColor=#23445D;gradientColor=none;strokeColor=none;fontColor=#FFFFFF;fontStyle=1;fontFamily=Tahoma;fontSize=14" vertex="1" parent="1">
          <mxGeometry x="950" y="390" width="130" height="60" as="geometry" />
        </mxCell>
        <mxCell id="fiUAc112BZFh3NTJw_ni-48" value="Knowhow" style="rounded=1;fillColor=#23445D;gradientColor=none;strokeColor=none;fontColor=#FFFFFF;fontStyle=1;fontFamily=Tahoma;fontSize=14" vertex="1" parent="1">
          <mxGeometry x="950" y="480" width="130" height="60" as="geometry" />
        </mxCell>
        <mxCell id="fiUAc112BZFh3NTJw_ni-49" value="SI" style="rounded=1;fillColor=#23445D;gradientColor=none;strokeColor=none;fontColor=#FFFFFF;fontStyle=1;fontFamily=Tahoma;fontSize=14" vertex="1" parent="1">
          <mxGeometry x="1190" y="300" width="130" height="60" as="geometry" />
        </mxCell>
        <mxCell id="fiUAc112BZFh3NTJw_ni-50" value="Programming" style="rounded=1;fillColor=#23445D;gradientColor=none;strokeColor=none;fontColor=#FFFFFF;fontStyle=1;fontFamily=Tahoma;fontSize=14" vertex="1" parent="1">
          <mxGeometry x="1190" y="390" width="130" height="60" as="geometry" />
        </mxCell>
        <mxCell id="fiUAc112BZFh3NTJw_ni-51" value="Client / Server" style="rounded=1;fillColor=#23445D;gradientColor=none;strokeColor=none;fontColor=#FFFFFF;fontStyle=1;fontFamily=Tahoma;fontSize=14" vertex="1" parent="1">
          <mxGeometry x="1190" y="480" width="130" height="60" as="geometry" />
        </mxCell>
        <mxCell id="fiUAc112BZFh3NTJw_ni-52" value="Data Collection" style="rounded=1;fillColor=#23445D;gradientColor=none;strokeColor=none;fontColor=#FFFFFF;fontStyle=1;fontFamily=Tahoma;fontSize=14" vertex="1" parent="1">
          <mxGeometry x="1190" y="570.0000000000001" width="130" height="60" as="geometry" />
        </mxCell>
        <mxCell id="fiUAc112BZFh3NTJw_ni-53" value="SSI" style="rounded=1;fillColor=#23445D;gradientColor=none;strokeColor=none;fontColor=#FFFFFF;fontStyle=1;fontFamily=Tahoma;fontSize=14" vertex="1" parent="1">
          <mxGeometry x="1365" y="300" width="130" height="60" as="geometry" />
        </mxCell>
        <mxCell id="fiUAc112BZFh3NTJw_ni-54" value="Programming" style="rounded=1;fillColor=#23445D;gradientColor=none;strokeColor=none;fontColor=#FFFFFF;fontStyle=1;fontFamily=Tahoma;fontSize=14" vertex="1" parent="1">
          <mxGeometry x="1365" y="390" width="130" height="60" as="geometry" />
        </mxCell>
        <mxCell id="fiUAc112BZFh3NTJw_ni-55" value="Client / Server" style="rounded=1;fillColor=#23445D;gradientColor=none;strokeColor=none;fontColor=#FFFFFF;fontStyle=1;fontFamily=Tahoma;fontSize=14" vertex="1" parent="1">
          <mxGeometry x="1365" y="480" width="130" height="60" as="geometry" />
        </mxCell>
        <mxCell id="fiUAc112BZFh3NTJw_ni-56" value="Data Collection" style="rounded=1;fillColor=#23445D;gradientColor=none;strokeColor=none;fontColor=#FFFFFF;fontStyle=1;fontFamily=Tahoma;fontSize=14" vertex="1" parent="1">
          <mxGeometry x="1365" y="570.0000000000001" width="130" height="60" as="geometry" />
        </mxCell>
        <mxCell id="fiUAc112BZFh3NTJw_ni-57" value="XMI" style="rounded=1;fillColor=#23445D;gradientColor=none;strokeColor=none;fontColor=#FFFFFF;fontStyle=1;fontFamily=Tahoma;fontSize=14" vertex="1" parent="1">
          <mxGeometry x="1540" y="300" width="130" height="60" as="geometry" />
        </mxCell>
        <mxCell id="fiUAc112BZFh3NTJw_ni-58" value="Programming" style="rounded=1;fillColor=#23445D;gradientColor=none;strokeColor=none;fontColor=#FFFFFF;fontStyle=1;fontFamily=Tahoma;fontSize=14" vertex="1" parent="1">
          <mxGeometry x="1540" y="390" width="130" height="60" as="geometry" />
        </mxCell>
        <mxCell id="fiUAc112BZFh3NTJw_ni-59" value="HTTP" style="rounded=1;fillColor=#23445D;gradientColor=none;strokeColor=none;fontColor=#FFFFFF;fontStyle=1;fontFamily=Tahoma;fontSize=14" vertex="1" parent="1">
          <mxGeometry x="1540" y="480" width="130" height="60" as="geometry" />
        </mxCell>
        <mxCell id="fiUAc112BZFh3NTJw_ni-60" value="HTS" style="rounded=1;fillColor=#23445D;gradientColor=none;strokeColor=none;fontColor=#FFFFFF;fontStyle=1;fontFamily=Tahoma;fontSize=14" vertex="1" parent="1">
          <mxGeometry x="1540" y="570.0000000000001" width="130" height="60" as="geometry" />
        </mxCell>
        <mxCell id="fiUAc112BZFh3NTJw_ni-61" value="CVS" style="rounded=1;fillColor=#23445D;gradientColor=none;strokeColor=none;fontColor=#FFFFFF;fontStyle=1;fontFamily=Tahoma;fontSize=14" vertex="1" parent="1">
          <mxGeometry x="1540" y="660.0000000000001" width="130" height="60" as="geometry" />
        </mxCell>
        <mxCell id="fiUAc112BZFh3NTJw_ni-62" value="Client / Server" style="rounded=1;fillColor=#23445D;gradientColor=none;strokeColor=none;fontColor=#FFFFFF;fontStyle=1;fontFamily=Tahoma;fontSize=14" vertex="1" parent="1">
          <mxGeometry x="1540" y="750.0000000000001" width="130" height="60" as="geometry" />
        </mxCell>
        <mxCell id="fiUAc112BZFh3NTJw_ni-63" value="Data Collection" style="rounded=1;fillColor=#23445D;gradientColor=none;strokeColor=none;fontColor=#FFFFFF;fontStyle=1;fontFamily=Tahoma;fontSize=14" vertex="1" parent="1">
          <mxGeometry x="1540" y="840.0000000000001" width="130" height="60" as="geometry" />
        </mxCell>
        <mxCell id="fiUAc112BZFh3NTJw_ni-64" value="" style="edgeStyle=elbowEdgeStyle;elbow=vertical;strokeWidth=2;rounded=0;fontSize=12;startSize=8;endSize=8;curved=1;" edge="1" parent="1" source="fiUAc112BZFh3NTJw_ni-17" target="fiUAc112BZFh3NTJw_ni-21">
          <mxGeometry x="347" y="225.5" width="100" height="100" as="geometry">
            <mxPoint x="834.9999999999999" y="119.99999999999997" as="sourcePoint" />
            <mxPoint x="1439.9999999999998" y="189.99999999999997" as="targetPoint" />
          </mxGeometry>
        </mxCell>
        <mxCell id="fiUAc112BZFh3NTJw_ni-65" value="" style="edgeStyle=elbowEdgeStyle;elbow=vertical;strokeWidth=2;rounded=0;fontSize=12;startSize=8;endSize=8;curved=1;" edge="1" parent="1" source="fiUAc112BZFh3NTJw_ni-17" target="fiUAc112BZFh3NTJw_ni-22">
          <mxGeometry x="-23" y="135.5" width="100" height="100" as="geometry">
            <mxPoint x="-50" y="79.99999999999997" as="sourcePoint" />
            <mxPoint x="50" y="-20.00000000000003" as="targetPoint" />
          </mxGeometry>
        </mxCell>
        <mxCell id="fiUAc112BZFh3NTJw_ni-66" value="" style="edgeStyle=elbowEdgeStyle;elbow=vertical;strokeWidth=2;rounded=0;fontSize=12;startSize=8;endSize=8;curved=1;" edge="1" parent="1" source="fiUAc112BZFh3NTJw_ni-22" target="fiUAc112BZFh3NTJw_ni-23">
          <mxGeometry x="-23" y="135.5" width="100" height="100" as="geometry">
            <mxPoint x="-50" y="79.99999999999997" as="sourcePoint" />
            <mxPoint x="50" y="-20.00000000000003" as="targetPoint" />
          </mxGeometry>
        </mxCell>
        <mxCell id="fiUAc112BZFh3NTJw_ni-67" value="" style="edgeStyle=elbowEdgeStyle;elbow=horizontal;strokeWidth=2;rounded=0;fontSize=12;startSize=8;endSize=8;curved=1;" edge="1" parent="1" source="fiUAc112BZFh3NTJw_ni-22" target="fiUAc112BZFh3NTJw_ni-25">
          <mxGeometry x="-23" y="135.5" width="100" height="100" as="geometry">
            <mxPoint x="-50" y="79.99999999999997" as="sourcePoint" />
            <mxPoint x="50" y="-20.00000000000003" as="targetPoint" />
            <Array as="points">
              <mxPoint x="175" y="280" />
            </Array>
          </mxGeometry>
        </mxCell>
        <mxCell id="fiUAc112BZFh3NTJw_ni-68" value="" style="edgeStyle=elbowEdgeStyle;elbow=horizontal;strokeWidth=2;rounded=0;fontSize=12;startSize=8;endSize=8;curved=1;" edge="1" parent="1" source="fiUAc112BZFh3NTJw_ni-22" target="fiUAc112BZFh3NTJw_ni-26">
          <mxGeometry x="-23" y="135.5" width="100" height="100" as="geometry">
            <mxPoint x="-50" y="79.99999999999997" as="sourcePoint" />
            <mxPoint x="50" y="-20.00000000000003" as="targetPoint" />
            <Array as="points">
              <mxPoint x="175" y="320" />
            </Array>
          </mxGeometry>
        </mxCell>
        <mxCell id="fiUAc112BZFh3NTJw_ni-69" value="" style="edgeStyle=elbowEdgeStyle;elbow=horizontal;strokeWidth=2;rounded=0;fontSize=12;startSize=8;endSize=8;curved=1;" edge="1" parent="1" source="fiUAc112BZFh3NTJw_ni-22" target="fiUAc112BZFh3NTJw_ni-27">
          <mxGeometry x="-23" y="135.5" width="100" height="100" as="geometry">
            <mxPoint x="-50" y="79.99999999999997" as="sourcePoint" />
            <mxPoint x="50" y="-20.00000000000003" as="targetPoint" />
            <Array as="points">
              <mxPoint x="175" y="370" />
            </Array>
          </mxGeometry>
        </mxCell>
        <mxCell id="fiUAc112BZFh3NTJw_ni-70" value="" style="edgeStyle=elbowEdgeStyle;elbow=horizontal;strokeWidth=2;rounded=0;fontSize=12;startSize=8;endSize=8;curved=1;" edge="1" parent="1" source="fiUAc112BZFh3NTJw_ni-22" target="fiUAc112BZFh3NTJw_ni-28">
          <mxGeometry x="-23" y="135.5" width="100" height="100" as="geometry">
            <mxPoint x="-50" y="79.99999999999997" as="sourcePoint" />
            <mxPoint x="50" y="-20.00000000000003" as="targetPoint" />
            <Array as="points">
              <mxPoint x="175" y="420" />
            </Array>
          </mxGeometry>
        </mxCell>
        <mxCell id="fiUAc112BZFh3NTJw_ni-71" value="" style="edgeStyle=elbowEdgeStyle;elbow=horizontal;strokeWidth=2;rounded=0;fontSize=12;startSize=8;endSize=8;curved=1;" edge="1" parent="1" source="fiUAc112BZFh3NTJw_ni-22" target="fiUAc112BZFh3NTJw_ni-29">
          <mxGeometry x="-23" y="135.5" width="100" height="100" as="geometry">
            <mxPoint x="-50" y="79.99999999999997" as="sourcePoint" />
            <mxPoint x="50" y="-20.00000000000003" as="targetPoint" />
            <Array as="points">
              <mxPoint x="175" y="460" />
            </Array>
          </mxGeometry>
        </mxCell>
        <mxCell id="fiUAc112BZFh3NTJw_ni-72" value="" style="edgeStyle=elbowEdgeStyle;elbow=horizontal;strokeWidth=2;rounded=0;fontSize=12;startSize=8;endSize=8;curved=1;" edge="1" parent="1" source="fiUAc112BZFh3NTJw_ni-22" target="fiUAc112BZFh3NTJw_ni-30">
          <mxGeometry x="-23" y="135.5" width="100" height="100" as="geometry">
            <mxPoint x="-50" y="79.99999999999997" as="sourcePoint" />
            <mxPoint x="50" y="-20.00000000000003" as="targetPoint" />
            <Array as="points">
              <mxPoint x="175" y="510" />
            </Array>
          </mxGeometry>
        </mxCell>
        <mxCell id="fiUAc112BZFh3NTJw_ni-73" value="" style="edgeStyle=elbowEdgeStyle;elbow=horizontal;strokeWidth=2;rounded=0;fontSize=12;startSize=8;endSize=8;curved=1;" edge="1" parent="1" source="fiUAc112BZFh3NTJw_ni-31" target="fiUAc112BZFh3NTJw_ni-32">
          <mxGeometry x="-23" y="135.5" width="100" height="100" as="geometry">
            <mxPoint x="-50" y="79.99999999999997" as="sourcePoint" />
            <mxPoint x="50" y="-20.00000000000003" as="targetPoint" />
            <Array as="points">
              <mxPoint x="370" y="380" />
            </Array>
          </mxGeometry>
        </mxCell>
        <mxCell id="fiUAc112BZFh3NTJw_ni-74" value="" style="edgeStyle=elbowEdgeStyle;elbow=horizontal;strokeWidth=2;rounded=0;fontSize=12;startSize=8;endSize=8;curved=1;" edge="1" parent="1" source="fiUAc112BZFh3NTJw_ni-31" target="fiUAc112BZFh3NTJw_ni-33">
          <mxGeometry x="-23" y="135.5" width="100" height="100" as="geometry">
            <mxPoint x="-50" y="79.99999999999997" as="sourcePoint" />
            <mxPoint x="50" y="-20.00000000000003" as="targetPoint" />
            <Array as="points">
              <mxPoint x="370" y="420" />
            </Array>
          </mxGeometry>
        </mxCell>
        <mxCell id="fiUAc112BZFh3NTJw_ni-75" value="" style="edgeStyle=elbowEdgeStyle;elbow=horizontal;strokeWidth=2;rounded=0;fontSize=12;startSize=8;endSize=8;curved=1;" edge="1" parent="1" source="fiUAc112BZFh3NTJw_ni-31" target="fiUAc112BZFh3NTJw_ni-34">
          <mxGeometry x="-23" y="135.5" width="100" height="100" as="geometry">
            <mxPoint x="-50" y="79.99999999999997" as="sourcePoint" />
            <mxPoint x="50" y="-20.00000000000003" as="targetPoint" />
            <Array as="points">
              <mxPoint x="370" y="460" />
            </Array>
          </mxGeometry>
        </mxCell>
        <mxCell id="fiUAc112BZFh3NTJw_ni-76" value="" style="edgeStyle=elbowEdgeStyle;elbow=horizontal;strokeWidth=2;rounded=0;fontSize=12;startSize=8;endSize=8;curved=1;" edge="1" parent="1" source="fiUAc112BZFh3NTJw_ni-35" target="fiUAc112BZFh3NTJw_ni-36">
          <mxGeometry x="-23" y="135.5" width="100" height="100" as="geometry">
            <mxPoint x="-50" y="79.99999999999997" as="sourcePoint" />
            <mxPoint x="50" y="-20.00000000000003" as="targetPoint" />
            <Array as="points">
              <mxPoint x="540" y="380" />
            </Array>
          </mxGeometry>
        </mxCell>
        <mxCell id="fiUAc112BZFh3NTJw_ni-77" value="" style="edgeStyle=elbowEdgeStyle;elbow=horizontal;strokeWidth=2;rounded=0;fontSize=12;startSize=8;endSize=8;curved=1;" edge="1" parent="1" source="fiUAc112BZFh3NTJw_ni-35" target="fiUAc112BZFh3NTJw_ni-37">
          <mxGeometry x="-23" y="135.5" width="100" height="100" as="geometry">
            <mxPoint x="-50" y="79.99999999999997" as="sourcePoint" />
            <mxPoint x="50" y="-20.00000000000003" as="targetPoint" />
            <Array as="points">
              <mxPoint x="540" y="420" />
            </Array>
          </mxGeometry>
        </mxCell>
        <mxCell id="fiUAc112BZFh3NTJw_ni-78" value="" style="edgeStyle=elbowEdgeStyle;elbow=horizontal;strokeWidth=2;rounded=0;fontSize=12;startSize=8;endSize=8;curved=1;" edge="1" parent="1" source="fiUAc112BZFh3NTJw_ni-35" target="fiUAc112BZFh3NTJw_ni-38">
          <mxGeometry x="-23" y="135.5" width="100" height="100" as="geometry">
            <mxPoint x="-50" y="79.99999999999997" as="sourcePoint" />
            <mxPoint x="50" y="-20.00000000000003" as="targetPoint" />
            <Array as="points">
              <mxPoint x="540" y="460" />
            </Array>
          </mxGeometry>
        </mxCell>
        <mxCell id="fiUAc112BZFh3NTJw_ni-79" value="" style="edgeStyle=elbowEdgeStyle;elbow=horizontal;strokeWidth=2;rounded=0;fontSize=12;startSize=8;endSize=8;curved=1;" edge="1" parent="1" source="fiUAc112BZFh3NTJw_ni-39" target="fiUAc112BZFh3NTJw_ni-40">
          <mxGeometry x="-23" y="135.5" width="100" height="100" as="geometry">
            <mxPoint x="-50" y="79.99999999999997" as="sourcePoint" />
            <mxPoint x="50" y="-20.00000000000003" as="targetPoint" />
            <Array as="points">
              <mxPoint x="720" y="380" />
            </Array>
          </mxGeometry>
        </mxCell>
        <mxCell id="fiUAc112BZFh3NTJw_ni-80" value="" style="edgeStyle=elbowEdgeStyle;elbow=horizontal;strokeWidth=2;rounded=0;fontSize=12;startSize=8;endSize=8;curved=1;" edge="1" parent="1" source="fiUAc112BZFh3NTJw_ni-39" target="fiUAc112BZFh3NTJw_ni-41">
          <mxGeometry x="-23" y="135.5" width="100" height="100" as="geometry">
            <mxPoint x="-50" y="79.99999999999997" as="sourcePoint" />
            <mxPoint x="50" y="-20.00000000000003" as="targetPoint" />
            <Array as="points">
              <mxPoint x="720" y="420" />
            </Array>
          </mxGeometry>
        </mxCell>
        <mxCell id="fiUAc112BZFh3NTJw_ni-81" value="" style="edgeStyle=elbowEdgeStyle;elbow=horizontal;strokeWidth=2;rounded=0;fontSize=12;startSize=8;endSize=8;curved=1;" edge="1" parent="1" source="fiUAc112BZFh3NTJw_ni-39" target="fiUAc112BZFh3NTJw_ni-42">
          <mxGeometry x="-23" y="135.5" width="100" height="100" as="geometry">
            <mxPoint x="-50" y="79.99999999999997" as="sourcePoint" />
            <mxPoint x="50" y="-20.00000000000003" as="targetPoint" />
            <Array as="points">
              <mxPoint x="720" y="470" />
            </Array>
          </mxGeometry>
        </mxCell>
        <mxCell id="fiUAc112BZFh3NTJw_ni-82" value="" style="edgeStyle=elbowEdgeStyle;elbow=horizontal;strokeWidth=2;rounded=0;fontSize=12;startSize=8;endSize=8;curved=1;" edge="1" parent="1" source="fiUAc112BZFh3NTJw_ni-39" target="fiUAc112BZFh3NTJw_ni-43">
          <mxGeometry x="-23" y="135.5" width="100" height="100" as="geometry">
            <mxPoint x="-50" y="79.99999999999997" as="sourcePoint" />
            <mxPoint x="50" y="-20.00000000000003" as="targetPoint" />
            <Array as="points">
              <mxPoint x="720" y="510" />
            </Array>
          </mxGeometry>
        </mxCell>
        <mxCell id="fiUAc112BZFh3NTJw_ni-83" value="" style="edgeStyle=elbowEdgeStyle;elbow=horizontal;strokeWidth=2;rounded=0;fontSize=12;startSize=8;endSize=8;curved=1;" edge="1" parent="1" source="fiUAc112BZFh3NTJw_ni-39" target="fiUAc112BZFh3NTJw_ni-44">
          <mxGeometry x="-23" y="135.5" width="100" height="100" as="geometry">
            <mxPoint x="-50" y="79.99999999999997" as="sourcePoint" />
            <mxPoint x="50" y="-20.00000000000003" as="targetPoint" />
            <Array as="points">
              <mxPoint x="720" y="550" />
            </Array>
          </mxGeometry>
        </mxCell>
        <mxCell id="fiUAc112BZFh3NTJw_ni-84" value="" style="edgeStyle=elbowEdgeStyle;elbow=horizontal;strokeWidth=2;rounded=0;fontSize=12;startSize=8;endSize=8;curved=1;" edge="1" parent="1" source="fiUAc112BZFh3NTJw_ni-39" target="fiUAc112BZFh3NTJw_ni-45">
          <mxGeometry x="-23" y="135.5" width="100" height="100" as="geometry">
            <mxPoint x="-50" y="79.99999999999997" as="sourcePoint" />
            <mxPoint x="50" y="-20.00000000000003" as="targetPoint" />
            <Array as="points">
              <mxPoint x="720" y="600" />
            </Array>
          </mxGeometry>
        </mxCell>
        <mxCell id="fiUAc112BZFh3NTJw_ni-85" value="" style="edgeStyle=elbowEdgeStyle;elbow=horizontal;strokeWidth=2;rounded=0;fontSize=12;startSize=8;endSize=8;curved=1;" edge="1" parent="1" source="fiUAc112BZFh3NTJw_ni-46" target="fiUAc112BZFh3NTJw_ni-47">
          <mxGeometry x="-23" y="135.5" width="100" height="100" as="geometry">
            <mxPoint x="-50" y="79.99999999999997" as="sourcePoint" />
            <mxPoint x="50" y="-20.00000000000003" as="targetPoint" />
            <Array as="points">
              <mxPoint x="930" y="380" />
            </Array>
          </mxGeometry>
        </mxCell>
        <mxCell id="fiUAc112BZFh3NTJw_ni-86" value="" style="edgeStyle=elbowEdgeStyle;elbow=horizontal;strokeWidth=2;rounded=0;fontSize=12;startSize=8;endSize=8;curved=1;" edge="1" parent="1" source="fiUAc112BZFh3NTJw_ni-46" target="fiUAc112BZFh3NTJw_ni-48">
          <mxGeometry x="-23" y="135.5" width="100" height="100" as="geometry">
            <mxPoint x="-50" y="79.99999999999997" as="sourcePoint" />
            <mxPoint x="50" y="-20.00000000000003" as="targetPoint" />
            <Array as="points">
              <mxPoint x="930" y="430" />
            </Array>
          </mxGeometry>
        </mxCell>
        <mxCell id="fiUAc112BZFh3NTJw_ni-87" value="" style="edgeStyle=elbowEdgeStyle;elbow=horizontal;strokeWidth=2;rounded=0;fontSize=12;startSize=8;endSize=8;curved=1;" edge="1" parent="1" source="fiUAc112BZFh3NTJw_ni-49" target="fiUAc112BZFh3NTJw_ni-50">
          <mxGeometry x="-23" y="135.5" width="100" height="100" as="geometry">
            <mxPoint x="-50" y="79.99999999999997" as="sourcePoint" />
            <mxPoint x="50" y="-20.00000000000003" as="targetPoint" />
            <Array as="points">
              <mxPoint x="1170" y="390" />
            </Array>
          </mxGeometry>
        </mxCell>
        <mxCell id="fiUAc112BZFh3NTJw_ni-88" value="" style="edgeStyle=elbowEdgeStyle;elbow=horizontal;strokeWidth=2;rounded=0;fontSize=12;startSize=8;endSize=8;curved=1;" edge="1" parent="1" source="fiUAc112BZFh3NTJw_ni-49" target="fiUAc112BZFh3NTJw_ni-51">
          <mxGeometry x="-23" y="135.5" width="100" height="100" as="geometry">
            <mxPoint x="-50" y="79.99999999999997" as="sourcePoint" />
            <mxPoint x="50" y="-20.00000000000003" as="targetPoint" />
            <Array as="points">
              <mxPoint x="1170" y="420" />
            </Array>
          </mxGeometry>
        </mxCell>
        <mxCell id="fiUAc112BZFh3NTJw_ni-89" value="" style="edgeStyle=elbowEdgeStyle;elbow=horizontal;strokeWidth=2;rounded=0;fontSize=12;startSize=8;endSize=8;curved=1;" edge="1" parent="1" source="fiUAc112BZFh3NTJw_ni-49" target="fiUAc112BZFh3NTJw_ni-52">
          <mxGeometry x="-23" y="135.5" width="100" height="100" as="geometry">
            <mxPoint x="-50" y="79.99999999999997" as="sourcePoint" />
            <mxPoint x="50" y="-20.00000000000003" as="targetPoint" />
            <Array as="points">
              <mxPoint x="1170" y="470" />
            </Array>
          </mxGeometry>
        </mxCell>
        <mxCell id="fiUAc112BZFh3NTJw_ni-90" value="" style="edgeStyle=elbowEdgeStyle;elbow=horizontal;strokeWidth=2;rounded=0;fontSize=12;startSize=8;endSize=8;curved=1;" edge="1" parent="1" source="fiUAc112BZFh3NTJw_ni-53" target="fiUAc112BZFh3NTJw_ni-54">
          <mxGeometry x="-23" y="135.5" width="100" height="100" as="geometry">
            <mxPoint x="-50" y="79.99999999999997" as="sourcePoint" />
            <mxPoint x="50" y="-20.00000000000003" as="targetPoint" />
            <Array as="points">
              <mxPoint x="1340" y="380" />
            </Array>
          </mxGeometry>
        </mxCell>
        <mxCell id="fiUAc112BZFh3NTJw_ni-91" value="" style="edgeStyle=elbowEdgeStyle;elbow=horizontal;strokeWidth=2;rounded=0;fontSize=12;startSize=8;endSize=8;curved=1;" edge="1" parent="1" source="fiUAc112BZFh3NTJw_ni-53" target="fiUAc112BZFh3NTJw_ni-55">
          <mxGeometry x="-23" y="135.5" width="100" height="100" as="geometry">
            <mxPoint x="-50" y="79.99999999999997" as="sourcePoint" />
            <mxPoint x="50" y="-20.00000000000003" as="targetPoint" />
            <Array as="points">
              <mxPoint x="1340" y="440" />
            </Array>
          </mxGeometry>
        </mxCell>
        <mxCell id="fiUAc112BZFh3NTJw_ni-92" value="" style="edgeStyle=elbowEdgeStyle;elbow=horizontal;strokeWidth=2;rounded=0;fontSize=12;startSize=8;endSize=8;curved=1;" edge="1" parent="1" source="fiUAc112BZFh3NTJw_ni-53" target="fiUAc112BZFh3NTJw_ni-56">
          <mxGeometry x="-23" y="135.5" width="100" height="100" as="geometry">
            <mxPoint x="-50" y="79.99999999999997" as="sourcePoint" />
            <mxPoint x="50" y="-20.00000000000003" as="targetPoint" />
            <Array as="points">
              <mxPoint x="1340" y="470" />
            </Array>
          </mxGeometry>
        </mxCell>
        <mxCell id="fiUAc112BZFh3NTJw_ni-93" value="" style="edgeStyle=elbowEdgeStyle;elbow=horizontal;strokeWidth=2;rounded=0;fontSize=12;startSize=8;endSize=8;curved=1;" edge="1" parent="1" source="fiUAc112BZFh3NTJw_ni-57" target="fiUAc112BZFh3NTJw_ni-58">
          <mxGeometry x="-23" y="135.5" width="100" height="100" as="geometry">
            <mxPoint x="-50" y="79.99999999999997" as="sourcePoint" />
            <mxPoint x="50" y="-20.00000000000003" as="targetPoint" />
            <Array as="points">
              <mxPoint x="1520" y="380" />
            </Array>
          </mxGeometry>
        </mxCell>
        <mxCell id="fiUAc112BZFh3NTJw_ni-94" value="" style="edgeStyle=elbowEdgeStyle;elbow=horizontal;strokeWidth=2;rounded=0;fontSize=12;startSize=8;endSize=8;curved=1;" edge="1" parent="1" source="fiUAc112BZFh3NTJw_ni-57" target="fiUAc112BZFh3NTJw_ni-59">
          <mxGeometry x="-23" y="135.5" width="100" height="100" as="geometry">
            <mxPoint x="-50" y="79.99999999999997" as="sourcePoint" />
            <mxPoint x="50" y="-20.00000000000003" as="targetPoint" />
            <Array as="points">
              <mxPoint x="1520" y="420" />
            </Array>
          </mxGeometry>
        </mxCell>
        <mxCell id="fiUAc112BZFh3NTJw_ni-95" value="" style="edgeStyle=elbowEdgeStyle;elbow=horizontal;strokeWidth=2;rounded=0;fontSize=12;startSize=8;endSize=8;curved=1;" edge="1" parent="1" source="fiUAc112BZFh3NTJw_ni-57" target="fiUAc112BZFh3NTJw_ni-60">
          <mxGeometry x="-23" y="135.5" width="100" height="100" as="geometry">
            <mxPoint x="-50" y="79.99999999999997" as="sourcePoint" />
            <mxPoint x="50" y="-20.00000000000003" as="targetPoint" />
            <Array as="points">
              <mxPoint x="1520" y="470" />
            </Array>
          </mxGeometry>
        </mxCell>
        <mxCell id="fiUAc112BZFh3NTJw_ni-96" value="" style="edgeStyle=elbowEdgeStyle;elbow=horizontal;strokeWidth=2;rounded=0;fontSize=12;startSize=8;endSize=8;curved=1;" edge="1" parent="1" source="fiUAc112BZFh3NTJw_ni-57" target="fiUAc112BZFh3NTJw_ni-61">
          <mxGeometry x="-23" y="135.5" width="100" height="100" as="geometry">
            <mxPoint x="-50" y="79.99999999999997" as="sourcePoint" />
            <mxPoint x="50" y="-20.00000000000003" as="targetPoint" />
            <Array as="points">
              <mxPoint x="1520" y="520" />
            </Array>
          </mxGeometry>
        </mxCell>
        <mxCell id="fiUAc112BZFh3NTJw_ni-97" value="" style="edgeStyle=elbowEdgeStyle;elbow=horizontal;strokeWidth=2;rounded=0;fontSize=12;startSize=8;endSize=8;curved=1;" edge="1" parent="1" source="fiUAc112BZFh3NTJw_ni-57" target="fiUAc112BZFh3NTJw_ni-62">
          <mxGeometry x="-23" y="135.5" width="100" height="100" as="geometry">
            <mxPoint x="-50" y="79.99999999999997" as="sourcePoint" />
            <mxPoint x="50" y="-20.00000000000003" as="targetPoint" />
            <Array as="points">
              <mxPoint x="1520" y="570" />
            </Array>
          </mxGeometry>
        </mxCell>
        <mxCell id="fiUAc112BZFh3NTJw_ni-98" value="" style="edgeStyle=elbowEdgeStyle;elbow=horizontal;strokeWidth=2;rounded=0;fontSize=12;startSize=8;endSize=8;curved=1;" edge="1" parent="1" source="fiUAc112BZFh3NTJw_ni-57" target="fiUAc112BZFh3NTJw_ni-63">
          <mxGeometry x="-23" y="135.5" width="100" height="100" as="geometry">
            <mxPoint x="-50" y="79.99999999999997" as="sourcePoint" />
            <mxPoint x="50" y="-20.00000000000003" as="targetPoint" />
            <Array as="points">
              <mxPoint x="1520" y="610" />
            </Array>
          </mxGeometry>
        </mxCell>
        <mxCell id="fiUAc112BZFh3NTJw_ni-99" value="" style="edgeStyle=elbowEdgeStyle;elbow=vertical;strokeWidth=2;rounded=0;fontSize=12;startSize=8;endSize=8;curved=1;" edge="1" parent="1" source="fiUAc112BZFh3NTJw_ni-21" target="fiUAc112BZFh3NTJw_ni-31">
          <mxGeometry x="-23" y="135.5" width="100" height="100" as="geometry">
            <mxPoint x="-50" y="79.99999999999997" as="sourcePoint" />
            <mxPoint x="50" y="-20.00000000000003" as="targetPoint" />
          </mxGeometry>
        </mxCell>
        <mxCell id="fiUAc112BZFh3NTJw_ni-100" value="" style="edgeStyle=elbowEdgeStyle;elbow=vertical;strokeWidth=2;rounded=0;fontSize=12;startSize=8;endSize=8;curved=1;" edge="1" parent="1" source="fiUAc112BZFh3NTJw_ni-21" target="fiUAc112BZFh3NTJw_ni-35">
          <mxGeometry x="-23" y="135.5" width="100" height="100" as="geometry">
            <mxPoint x="-50" y="79.99999999999997" as="sourcePoint" />
            <mxPoint x="50" y="-20.00000000000003" as="targetPoint" />
          </mxGeometry>
        </mxCell>
        <mxCell id="fiUAc112BZFh3NTJw_ni-101" value="" style="edgeStyle=elbowEdgeStyle;elbow=vertical;strokeWidth=2;rounded=0;fontSize=12;startSize=8;endSize=8;curved=1;" edge="1" parent="1" source="fiUAc112BZFh3NTJw_ni-21" target="fiUAc112BZFh3NTJw_ni-39">
          <mxGeometry x="-23" y="135.5" width="100" height="100" as="geometry">
            <mxPoint x="-50" y="79.99999999999997" as="sourcePoint" />
            <mxPoint x="50" y="-20.00000000000003" as="targetPoint" />
          </mxGeometry>
        </mxCell>
        <mxCell id="fiUAc112BZFh3NTJw_ni-102" value="" style="edgeStyle=elbowEdgeStyle;elbow=vertical;strokeWidth=2;rounded=0;fontSize=12;startSize=8;endSize=8;curved=1;" edge="1" parent="1" source="fiUAc112BZFh3NTJw_ni-20" target="fiUAc112BZFh3NTJw_ni-46">
          <mxGeometry x="-23" y="135.5" width="100" height="100" as="geometry">
            <mxPoint x="-50" y="79.99999999999997" as="sourcePoint" />
            <mxPoint x="50" y="-20.00000000000003" as="targetPoint" />
          </mxGeometry>
        </mxCell>
        <mxCell id="fiUAc112BZFh3NTJw_ni-103" value="" style="edgeStyle=elbowEdgeStyle;elbow=vertical;strokeWidth=2;rounded=0;fontSize=12;startSize=8;endSize=8;curved=1;" edge="1" parent="1" source="fiUAc112BZFh3NTJw_ni-18" target="fiUAc112BZFh3NTJw_ni-53">
          <mxGeometry x="-23" y="135.5" width="100" height="100" as="geometry">
            <mxPoint x="-50" y="79.99999999999997" as="sourcePoint" />
            <mxPoint x="50" y="-20.00000000000003" as="targetPoint" />
          </mxGeometry>
        </mxCell>
        <mxCell id="fiUAc112BZFh3NTJw_ni-104" value="" style="edgeStyle=elbowEdgeStyle;elbow=vertical;strokeWidth=2;rounded=0;fontSize=12;startSize=8;endSize=8;curved=1;" edge="1" parent="1" source="fiUAc112BZFh3NTJw_ni-18" target="fiUAc112BZFh3NTJw_ni-49">
          <mxGeometry x="-23" y="135.5" width="100" height="100" as="geometry">
            <mxPoint x="-50" y="79.99999999999997" as="sourcePoint" />
            <mxPoint x="50" y="-20.00000000000003" as="targetPoint" />
          </mxGeometry>
        </mxCell>
        <mxCell id="fiUAc112BZFh3NTJw_ni-105" value="" style="edgeStyle=elbowEdgeStyle;elbow=vertical;strokeWidth=2;rounded=0;fontSize=12;startSize=8;endSize=8;curved=1;" edge="1" parent="1" source="fiUAc112BZFh3NTJw_ni-18" target="fiUAc112BZFh3NTJw_ni-57">
          <mxGeometry x="-23" y="135.5" width="100" height="100" as="geometry">
            <mxPoint x="-50" y="79.99999999999997" as="sourcePoint" />
            <mxPoint x="50" y="-20.00000000000003" as="targetPoint" />
          </mxGeometry>
        </mxCell>
        <mxCell id="fiUAc112BZFh3NTJw_ni-106" value="" style="edgeStyle=elbowEdgeStyle;elbow=vertical;rounded=0;strokeWidth=2;fontSize=12;startSize=8;endSize=8;curved=1;" edge="1" parent="1" source="fiUAc112BZFh3NTJw_ni-23" target="fiUAc112BZFh3NTJw_ni-24">
          <mxGeometry x="-23" y="135.5" width="100" height="100" as="geometry">
            <mxPoint x="-50" y="79.99999999999997" as="sourcePoint" />
            <mxPoint x="50" y="-20.00000000000003" as="targetPoint" />
          </mxGeometry>
        </mxCell>
        <mxCell id="fiUAc112BZFh3NTJw_ni-107" value="" style="fillColor=#AE4132;strokeColor=none;opacity=30;" vertex="1" parent="1">
          <mxGeometry x="2629" y="25" width="210" height="99.99999999999994" as="geometry" />
        </mxCell>
        <mxCell id="fiUAc112BZFh3NTJw_ni-108" value="Hong Kong&#xa;Geo Helper&#xa;App" style="rounded=1;fillColor=#23445D;gradientColor=none;strokeColor=none;fontColor=#FFFFFF;fontStyle=1;fontFamily=Tahoma;fontSize=14" vertex="1" parent="1">
          <mxGeometry x="2639" y="34.99999999999997" width="190" height="80" as="geometry" />
        </mxCell>
        <mxCell id="fiUAc112BZFh3NTJw_ni-109" value="" style="fillColor=#10739E;strokeColor=none;opacity=30;" vertex="1" parent="1">
          <mxGeometry x="2326" y="210" width="818" height="100" as="geometry" />
        </mxCell>
        <mxCell id="fiUAc112BZFh3NTJw_ni-110" value="Location Identify&#xa;Page" style="rounded=1;fillColor=#23445D;gradientColor=none;strokeColor=none;fontColor=#FFFFFF;fontStyle=1;fontFamily=Tahoma;fontSize=14" vertex="1" parent="1">
          <mxGeometry x="2928" y="219.99999999999997" width="190" height="80" as="geometry" />
        </mxCell>
        <mxCell id="fiUAc112BZFh3NTJw_ni-111" value="" style="edgeStyle=elbowEdgeStyle;elbow=vertical;strokeWidth=2;rounded=0;fontSize=12;startSize=8;endSize=8;curved=1;exitX=0.5;exitY=1;exitDx=0;exitDy=0;" edge="1" target="fiUAc112BZFh3NTJw_ni-110" parent="1" source="fiUAc112BZFh3NTJw_ni-107">
          <mxGeometry x="337" y="215.5" width="100" height="100" as="geometry">
            <mxPoint x="2731" y="156" as="sourcePoint" />
            <mxPoint x="2316" y="105.99999999999997" as="targetPoint" />
          </mxGeometry>
        </mxCell>
        <mxCell id="fiUAc112BZFh3NTJw_ni-113" value="Location Search&#xa;Page" style="rounded=1;fillColor=#23445D;gradientColor=none;strokeColor=none;fontColor=#FFFFFF;fontStyle=1;fontFamily=Tahoma;fontSize=14" vertex="1" parent="1">
          <mxGeometry x="2639" y="219.99999999999997" width="190" height="80" as="geometry" />
        </mxCell>
        <mxCell id="fiUAc112BZFh3NTJw_ni-114" value="Lamppost Page" style="rounded=1;fillColor=#23445D;gradientColor=none;strokeColor=none;fontColor=#FFFFFF;fontStyle=1;fontFamily=Tahoma;fontSize=14" vertex="1" parent="1">
          <mxGeometry x="2350" y="219.99999999999997" width="190" height="80" as="geometry" />
        </mxCell>
        <mxCell id="fiUAc112BZFh3NTJw_ni-115" value="" style="edgeStyle=elbowEdgeStyle;elbow=vertical;strokeWidth=2;rounded=0;fontSize=12;startSize=8;endSize=8;curved=1;exitX=0.5;exitY=1;exitDx=0;exitDy=0;" edge="1" target="fiUAc112BZFh3NTJw_ni-113" parent="1" source="fiUAc112BZFh3NTJw_ni-107">
          <mxGeometry x="347" y="225.5" width="100" height="100" as="geometry">
            <mxPoint x="2731" y="156" as="sourcePoint" />
            <mxPoint x="3346" y="235.99999999999997" as="targetPoint" />
          </mxGeometry>
        </mxCell>
        <mxCell id="fiUAc112BZFh3NTJw_ni-116" value="" style="edgeStyle=elbowEdgeStyle;elbow=vertical;strokeWidth=2;rounded=0;fontSize=12;startSize=8;endSize=8;curved=1;exitX=0.5;exitY=1;exitDx=0;exitDy=0;" edge="1" target="fiUAc112BZFh3NTJw_ni-114" parent="1" source="fiUAc112BZFh3NTJw_ni-107">
          <mxGeometry x="-23" y="135.5" width="100" height="100" as="geometry">
            <mxPoint x="2731" y="156" as="sourcePoint" />
            <mxPoint x="1956" y="25.99999999999997" as="targetPoint" />
          </mxGeometry>
        </mxCell>
        <mxCell id="fiUAc112BZFh3NTJw_ni-117" value="" style="fillColor=#F2931E;strokeColor=none;opacity=30;" vertex="1" parent="1">
          <mxGeometry x="2341.5" y="334" width="207" height="270" as="geometry" />
        </mxCell>
      </root>
    </mxGraphModel>
  </diagram>
</mxfile>
